<?xml version="1.0" encoding="UTF-8" standalone="no"?>
<!DOCTYPE svg PUBLIC "-//W3C//DTD SVG 1.1//EN"
 "http://www.w3.org/Graphics/SVG/1.1/DTD/svg11.dtd">
<!-- Generated by graphviz version 2.40.1 (20161225.0304)
 -->
<!-- Title: %3 Pages: 1 -->
<svg width="300pt" height="162pt"
 viewBox="0.00 0.00 300.00 162.00" xmlns="http://www.w3.org/2000/svg" xmlns:xlink="http://www.w3.org/1999/xlink">
<g id="graph0" class="graph" transform="scale(1 1) rotate(0) translate(4 158)">
<title>%3</title>
<polygon fill="#ffffff" stroke="transparent" points="-4,4 -4,-158 296,-158 296,4 -4,4"/>
<!-- Person -->
<g id="node1" class="node">
<title>Person</title>
<polygon fill="none" stroke="#000000" points="8.5,-124 8.5,-150 105.5,-150 105.5,-124 8.5,-124"/>
<text text-anchor="start" x="31.6523" y="-133.2" font-family="Helvetica,sans-Serif" font-weight="bold" font-size="16.00" fill="#000000">Person</text>
<polygon fill="none" stroke="#000000" points="8.5,-100 8.5,-124 105.5,-124 105.5,-100 8.5,-100"/>
<text text-anchor="start" x="13.5" y="-108.8" font-family="Helvetica,sans-Serif" text-decoration="underline" font-size="14.00" fill="#000000">name</text>
<polygon fill="none" stroke="#000000" points="8.5,-76 8.5,-100 105.5,-100 105.5,-76 8.5,-76"/>
<text text-anchor="start" x="13.5" y="-83.8" font-family="Helvetica,sans-Serif" font-size="14.00" fill="#000000">height</text>
<polygon fill="none" stroke="#000000" points="8.5,-52 8.5,-76 105.5,-76 105.5,-52 8.5,-52"/>
<text text-anchor="start" x="13.5" y="-59.8" font-family="Helvetica,sans-Serif" font-size="14.00" fill="#000000">weight</text>
<polygon fill="none" stroke="#000000" points="8.5,-28 8.5,-52 105.5,-52 105.5,-28 8.5,-28"/>
<text text-anchor="start" x="13.5" y="-35.8" font-family="Helvetica,sans-Serif" font-size="14.00" fill="#000000">birth_date</text>
<polygon fill="none" stroke="#000000" points="8.5,-4 8.5,-28 105.5,-28 105.5,-4 8.5,-4"/>
<text text-anchor="start" x="13.4141" y="-12.8" font-family="Helvetica,sans-Serif" font-style="italic" font-size="14.00" fill="#000000">birth_place_id</text>
</g>
<!-- BirthPlace -->
<g id="node2" class="node">
<title>BirthPlace</title>
<polygon fill="none" stroke="#000000" points="194,-112 194,-138 284,-138 284,-112 194,-112"/>
<text text-anchor="start" x="202.5391" y="-121.2" font-family="Helvetica,sans-Serif" font-weight="bold" font-size="16.00" fill="#000000">BirthPlace</text>
<polygon fill="none" stroke="#000000" points="194,-88 194,-112 284,-112 284,-88 194,-88"/>
<text text-anchor="start" x="199" y="-96.8" font-family="Helvetica,sans-Serif" text-decoration="underline" font-size="14.00" fill="#000000">id</text>
<polygon fill="none" stroke="#000000" points="194,-64 194,-88 284,-88 284,-64 194,-64"/>
<text text-anchor="start" x="199" y="-71.8" font-family="Helvetica,sans-Serif" font-size="14.00" fill="#000000">birth_city</text>
<polygon fill="none" stroke="#000000" points="194,-40 194,-64 284,-64 284,-40 194,-40"/>
<text text-anchor="start" x="199" y="-47.8" font-family="Helvetica,sans-Serif" font-size="14.00" fill="#000000">birth_state</text>
<polygon fill="none" stroke="#000000" points="194,-16 194,-40 284,-40 284,-16 194,-16"/>
<text text-anchor="start" x="198.5347" y="-23.8" font-family="Helvetica,sans-Serif" font-size="14.00" fill="#000000">birth_country</text>
</g>
<!-- Person&#45;&#45;BirthPlace -->
<g id="edge1" class="edge">
<title>Person&#45;&#45;BirthPlace</title>
<path fill="none" stroke="#7f7f7f" stroke-dasharray="5,2" d="M113.2437,-77C136.3682,-77 162.9598,-77 185.7171,-77"/>
<text text-anchor="start" x="178.7171" y="-65.8" font-family="Times,serif" font-size="14.00" fill="#000000">1</text>
<text text-anchor="start" x="113.2437" y="-65.8" font-family="Times,serif" font-size="14.00" fill="#000000">0..N</text>
</g>
</g>
</svg>
