<?xml version="1.0" encoding="UTF-8" standalone="no"?>
<!DOCTYPE svg PUBLIC "-//W3C//DTD SVG 1.1//EN"
 "http://www.w3.org/Graphics/SVG/1.1/DTD/svg11.dtd">
<!-- Generated by graphviz version 2.40.1 (20161225.0304)
 -->
<!-- Title: state transitions Pages: 1 -->
<svg width="284pt" height="236pt"
 viewBox="0.00 0.00 283.79 236.00" xmlns="http://www.w3.org/2000/svg" xmlns:xlink="http://www.w3.org/1999/xlink">
<g id="graph0" class="graph" transform="scale(1 1) rotate(0) translate(4 232)">
<title>state transitions</title>
<polygon fill="#ffffff" stroke="transparent" points="-4,4 -4,-232 279.793,-232 279.793,4 -4,4"/>
<!-- eat -->
<g id="node1" class="node">
<title>eat</title>
<polygon fill="transparent" stroke="transparent" stroke-width="2" points="75,-228 19,-228 19,-192 75,-192 75,-228"/>
<text text-anchor="start" x="38.6618" y="-206.2" font-family="Helvetica,sans-Serif" font-size="12.00" fill="#000000">eat</text>
<path fill="none" stroke="#008800" stroke-width="2" d="M31.3333,-193C31.3333,-193 62.6667,-193 62.6667,-193 68.3333,-193 74,-198.6667 74,-204.3333 74,-204.3333 74,-215.6667 74,-215.6667 74,-221.3333 68.3333,-227 62.6667,-227 62.6667,-227 31.3333,-227 31.3333,-227 25.6667,-227 20,-221.3333 20,-215.6667 20,-215.6667 20,-204.3333 20,-204.3333 20,-198.6667 25.6667,-193 31.3333,-193"/>
</g>
<!-- sleep -->
<g id="node2" class="node">
<title>sleep</title>
<path fill="none" stroke="#0000ff" stroke-width="2" d="M181,-164C181,-164 149,-164 149,-164 143,-164 137,-158 137,-152 137,-152 137,-140 137,-140 137,-134 143,-128 149,-128 149,-128 181,-128 181,-128 187,-128 193,-134 193,-140 193,-140 193,-152 193,-152 193,-158 187,-164 181,-164"/>
<text text-anchor="start" x="150.6624" y="-143.2" font-family="Helvetica,sans-Serif" font-style="italic" font-size="12.00" fill="#000000">sleep</text>
<path fill="none" stroke="#0000ff" stroke-width="2" d="M149.3333,-129C149.3333,-129 180.6667,-129 180.6667,-129 186.3333,-129 192,-134.6667 192,-140.3333 192,-140.3333 192,-151.6667 192,-151.6667 192,-157.3333 186.3333,-163 180.6667,-163 180.6667,-163 149.3333,-163 149.3333,-163 143.6667,-163 138,-157.3333 138,-151.6667 138,-151.6667 138,-140.3333 138,-140.3333 138,-134.6667 143.6667,-129 149.3333,-129"/>
</g>
<!-- eat&#45;&gt;sleep -->
<g id="edge6" class="edge">
<title>eat&#45;&gt;sleep</title>
<path fill="none" stroke="#0000ff" d="M75.2639,-194.6704C91.0268,-186.1211 110.8506,-175.3692 127.8541,-166.1469"/>
<polygon fill="#0000ff" stroke="#0000ff" points="129.845,-169.0488 136.9667,-161.2045 126.5077,-162.8956 129.845,-169.0488"/>
<text text-anchor="start" x="117" y="-175" font-family="Helvetica,sans-Serif" font-size="10.00" fill="#0000ff">belly full &#160;&#160;</text>
</g>
<!-- meow -->
<g id="node3" class="node">
<title>meow</title>
<polygon fill="transparent" stroke="transparent" stroke-width="2" points="56,-100 0,-100 0,-64 56,-64 56,-100"/>
<text text-anchor="start" x="12.0004" y="-78.2" font-family="Helvetica,sans-Serif" font-size="12.00" fill="#000000">meow</text>
<path fill="none" stroke="#ff0000" stroke-width="2" d="M12.3333,-65C12.3333,-65 43.6667,-65 43.6667,-65 49.3333,-65 55,-70.6667 55,-76.3333 55,-76.3333 55,-87.6667 55,-87.6667 55,-93.3333 49.3333,-99 43.6667,-99 43.6667,-99 12.3333,-99 12.3333,-99 6.6667,-99 1,-93.3333 1,-87.6667 1,-87.6667 1,-76.3333 1,-76.3333 1,-70.6667 6.6667,-65 12.3333,-65"/>
</g>
<!-- sleep&#45;&gt;meow -->
<g id="edge1" class="edge">
<title>sleep&#45;&gt;meow</title>
<path fill="none" stroke="#ff0000" d="M136.9454,-132.8942C116.259,-123.2305 87.9055,-109.9851 65.3095,-99.4292"/>
<polygon fill="#ff0000" stroke="#ff0000" points="66.5586,-96.1497 56.0171,-95.0883 63.5958,-102.4918 66.5586,-96.1497"/>
<text text-anchor="start" x="109" y="-111" font-family="Helvetica,sans-Serif" font-size="10.00" fill="#ff0000">wake up &#160;&#160;</text>
</g>
<!-- meow&#45;&gt;eat -->
<g id="edge3" class="edge">
<title>meow&#45;&gt;eat</title>
<path fill="none" stroke="#008800" d="M30.1443,-100.2735C32.1565,-116.9146 35.3571,-142.1503 38.747,-164 39.6333,-169.7126 40.6655,-175.8086 41.6938,-181.6321"/>
<polygon fill="#008800" stroke="#008800" points="38.2866,-182.4595 43.5081,-191.6783 45.1751,-181.2155 38.2866,-182.4595"/>
<text text-anchor="start" x="39" y="-143" font-family="Helvetica,sans-Serif" font-size="10.00" fill="#008800">human gives food &#160;&#160;</text>
</g>
<!-- meow&#45;&gt;meow -->
<g id="edge2" class="edge">
<title>meow&#45;&gt;meow</title>
<path fill="none" stroke="#ff0000" d="M56.0183,-87.9381C67.888,-88.3856 78,-86.4063 78,-82 78,-78.9707 73.2205,-77.0885 66.3762,-76.3533"/>
<polygon fill="#ff0000" stroke="#ff0000" points="66.1128,-72.8446 56.0183,-76.0619 65.9158,-79.8419 66.1128,-72.8446"/>
<text text-anchor="start" x="78" y="-79" font-family="Helvetica,sans-Serif" font-size="10.00" fill="#ff0000">no response from human &#160;&#160;</text>
</g>
<!-- play -->
<g id="node4" class="node">
<title>play</title>
<polygon fill="transparent" stroke="transparent" stroke-width="2" points="161,-36 105,-36 105,0 161,0 161,-36"/>
<text text-anchor="start" x="121.9978" y="-14.2" font-family="Helvetica,sans-Serif" font-size="12.00" fill="#000000">play</text>
<path fill="none" stroke="#a020f0" stroke-width="2" d="M117.3333,-1C117.3333,-1 148.6667,-1 148.6667,-1 154.3333,-1 160,-6.6667 160,-12.3333 160,-12.3333 160,-23.6667 160,-23.6667 160,-29.3333 154.3333,-35 148.6667,-35 148.6667,-35 117.3333,-35 117.3333,-35 111.6667,-35 106,-29.3333 106,-23.6667 106,-23.6667 106,-12.3333 106,-12.3333 106,-6.6667 111.6667,-1 117.3333,-1"/>
</g>
<!-- meow&#45;&gt;play -->
<g id="edge4" class="edge">
<title>meow&#45;&gt;play</title>
<path fill="none" stroke="#a020f0" d="M56.1381,-64.8492C68.3785,-57.3883 82.8892,-48.5437 95.9873,-40.5601"/>
<polygon fill="#a020f0" stroke="#a020f0" points="98.067,-43.3914 104.7843,-35.1982 94.4238,-37.4142 98.067,-43.3914"/>
<text text-anchor="start" x="90" y="-47" font-family="Helvetica,sans-Serif" font-size="10.00" fill="#a020f0">human gives toy &#160;&#160;</text>
</g>
<!-- play&#45;&gt;sleep -->
<g id="edge5" class="edge">
<title>play&#45;&gt;sleep</title>
<path fill="none" stroke="#0000ff" d="M161.3186,-28.1228C177.0906,-35.4257 195.2631,-47.0226 204,-64 211.3213,-78.2267 209.5106,-84.9789 204,-100 201.3721,-107.1632 197.08,-113.9758 192.284,-120.0569"/>
<polygon fill="#0000ff" stroke="#0000ff" points="189.4311,-118.0054 185.5409,-127.8602 194.7275,-122.5823 189.4311,-118.0054"/>
<text text-anchor="start" x="208" y="-79" font-family="Helvetica,sans-Serif" font-size="10.00" fill="#0000ff">tired or bored &#160;&#160;</text>
</g>
</g>
</svg>
